HIERARCHY
ROOT Hips
{
	OFFSET 0.000000 0.000000 0.000000
	CHANNELS 6 Xposition Yposition Zposition Zrotation Yrotation Xrotation 
	JOINT LHipJoint
	{
		OFFSET 0.000000 0.000000 0.000000
		CHANNELS 3 Zrotation Yrotation Xrotation
		JOINT LeftUpLeg
		{
			OFFSET 1.363060 -1.794630 0.839290
			CHANNELS 3 Zrotation Yrotation Xrotation
			JOINT LeftLeg
			{
				OFFSET 2.448110 -6.726130 0.000000
				CHANNELS 3 Zrotation Yrotation Xrotation
				JOINT LeftFoot
				{
					OFFSET 2.562200 -7.039590 0.000000
					CHANNELS 3 Zrotation Yrotation Xrotation
					JOINT LeftToeBase
					{
						OFFSET 0.157640 -0.433110 2.322550
						CHANNELS 3 Zrotation Yrotation Xrotation
						End Site
						{
							OFFSET 0.000000 0.000000 0.000000
						}
					}
				}
			}
		}
	}
	JOINT RHipJoint
	{
		OFFSET 0.000000 0.000000 0.000000
		CHANNELS 3 Zrotation Yrotation Xrotation
		JOINT RightUpLeg
		{
			OFFSET -1.305520 -1.794630 0.839290
			CHANNELS 3 Zrotation Yrotation Xrotation
			JOINT RightLeg
			{
				OFFSET -2.542530 -6.985550 0.000000
				CHANNELS 3 Zrotation Yrotation Xrotation
				JOINT RightFoot
				{
					OFFSET -2.568260 -7.056230 0.000000
					CHANNELS 3 Zrotation Yrotation Xrotation
					JOINT RightToeBase
					{
						OFFSET -0.164730 -0.452590 2.363150
						CHANNELS 3 Zrotation Yrotation Xrotation
						End Site
						{
							OFFSET 0.000000 0.000000 0.000000
						}
					}
				}
			}
		}
	}
	JOINT LowerBack
	{
		OFFSET 0.000000 0.000000 0.000000
		CHANNELS 3 Zrotation Yrotation Xrotation
		JOINT Spine
		{
			OFFSET 0.028270 2.035590 -0.193380
			CHANNELS 3 Zrotation Yrotation Xrotation
			JOINT Spine1
			{
				OFFSET 0.056720 2.048850 -0.042750
				CHANNELS 3 Zrotation Yrotation Xrotation
				JOINT Neck
				{
					OFFSET 0.000000 0.000000 0.000000
					CHANNELS 3 Zrotation Yrotation Xrotation
					JOINT Neck1
					{
						OFFSET -0.054170 1.746240 0.172020
						CHANNELS 3 Zrotation Yrotation Xrotation
						JOINT Head
						{
							OFFSET 0.104070 1.761360 -0.123970
							CHANNELS 3 Zrotation Yrotation Xrotation
							End Site
							{
								OFFSET 0.000000 0.000000 0.000000
							}
						}
					}
				}
				JOINT LeftShoulder
				{
					OFFSET 0.000000 0.000000 0.000000
					CHANNELS 3 Zrotation Yrotation Xrotation
					JOINT LeftArm
					{
						OFFSET 3.362410 1.200890 -0.311210
						CHANNELS 3 Zrotation Yrotation Xrotation
						JOINT LeftForeArm
						{
							OFFSET 4.983000 -0.000000 -0.000000
							CHANNELS 3 Zrotation Yrotation Xrotation
							JOINT LeftHand
							{
								OFFSET 3.483560 -0.000000 -0.000000
								CHANNELS 3 Zrotation Yrotation Xrotation
								JOINT LeftFingerBase
								{
									OFFSET 0.000000 0.000000 0.000000
									CHANNELS 3 Zrotation Yrotation Xrotation
									JOINT LeftHandIndex1
									{
										OFFSET 0.715260 -0.000000 -0.000000
										CHANNELS 3 Zrotation Yrotation Xrotation
										End Site
										{
											OFFSET 0.000000 0.000000 0.000000
										}
									}
								}
								JOINT LThumb
								{
									OFFSET 0.000000 0.000000 0.000000
									CHANNELS 3 Zrotation Yrotation Xrotation
									End Site
									{
										OFFSET 0.000000 0.000000 0.000000
									}
								}
							}
						}
					}
				}
				JOINT RightShoulder
				{
					OFFSET 0.000000 0.000000 0.000000
					CHANNELS 3 Zrotation Yrotation Xrotation
					JOINT RightArm
					{
						OFFSET -3.136600 1.374050 -0.404650
						CHANNELS 3 Zrotation Yrotation Xrotation
						JOINT RightForeArm
						{
							OFFSET -5.241900 -0.000000 -0.000000
							CHANNELS 3 Zrotation Yrotation Xrotation
							JOINT RightHand
							{
								OFFSET -3.444170 -0.000000 -0.000000
								CHANNELS 3 Zrotation Yrotation Xrotation
								JOINT RightFingerBase
								{
									OFFSET 0.000000 0.000000 0.000000
									CHANNELS 3 Zrotation Yrotation Xrotation
									JOINT RightHandIndex1
									{
										OFFSET -0.622530 -0.000000 -0.000000
										CHANNELS 3 Zrotation Yrotation Xrotation
										End Site
										{
											OFFSET 0.000000 0.000000 0.000000
										}
									}
								}
								JOINT RThumb
								{
									OFFSET 0.000000 0.000000 0.000000
									CHANNELS 3 Zrotation Yrotation Xrotation
									End Site
									{
										OFFSET 0.000000 0.000000 0.000000
									}
								}
							}
						}
					}
				}
			}
		}
	}
}
MOTION
Frames: 8
Frame Time: 0.008333
-0.622255 18.497082 5.132848 -0.368794 -3.532341 11.196575 2.978505 3.871348 3.782077 -16.437882 -2.629510 -24.537658 1.521426 7.880286 25.496086 -0.779103 5.471767 -7.691673 8.431000 -16.427300 -54.100800 -2.160776 -4.265553 4.022447 14.049941 12.534505 -6.953899 0.413115 0.752102 1.416440 1.233051 -11.202760 -14.052573 -0.273900 3.366400 -9.300500 0.154970 -1.912165 16.218181 10.288107 -5.585875 34.488954 -1.631343 -1.140188 -28.944621 -5.988155 -5.822149 -20.996471 9.307201 -6.922847 0.979556 2.733200 -3.346400 3.288000 2.878086 -1.775200 -2.025180 -69.759034 -53.205036 47.459543 146.123194 -40.597692 -106.450624 -0.559002 1.125892 5.058107 3.173515 -19.643433 -1.354600 -7.125000 0.000000 0.000000 -15.704000 9.826500 13.317300 -6.307769 2.547514 -1.978611 40.612613 42.929968 3.128286 -149.460397 37.405256 -108.278343 0.767389 2.246274 8.936807 -7.730819 -47.338242 6.216800 7.125000 0.000000 0.000000 57.848500 -72.956700 -41.835900 
-0.626174 18.498062 5.112370 -0.317906 -3.133447 11.132445 3.038913 3.848728 3.747439 -16.515766 -2.744700 -24.449700 1.507659 7.821789 25.364352 -0.775110 5.404529 -7.486628 8.465100 -16.450900 -54.221200 -2.100182 -4.288926 4.030262 14.018845 12.179570 -6.992480 0.411296 0.741195 1.413491 1.222419 -11.144295 -14.027562 -0.265400 3.313900 -9.154100 0.171420 -1.924836 16.408004 11.013944 -5.803573 34.534118 -1.678093 -1.188148 -28.953021 -6.348083 -5.947915 -21.464653 9.209422 -7.087591 2.013650 2.740600 -3.389200 3.584700 2.683438 -1.761740 -2.030345 -69.325017 -55.376239 46.418678 144.448997 -41.730922 -105.308135 -0.531684 1.089264 5.445473 2.186560 -18.335828 -0.934400 -7.125000 0.000000 0.000000 -16.387400 11.177200 13.477500 -6.133472 2.543383 -1.987563 37.199725 43.739369 0.087977 -147.745769 38.791917 -107.026993 0.821437 2.124112 10.251680 -7.971354 -47.970531 6.466200 7.125000 0.000000 0.000000 59.216500 -73.295600 -43.355900 
-0.632053 18.498650 5.091109 -0.218240 -2.774295 11.103080 3.095942 3.821262 3.711176 -16.643801 -2.824528 -24.442346 1.503837 7.781966 25.286097 -0.760502 5.287234 -7.255720 8.519300 -16.488200 -54.412200 -2.046413 -4.313754 4.038537 13.943007 11.870127 -7.078308 0.410942 0.728606 1.408826 1.238161 -11.215668 -13.971579 -0.303400 3.541700 -9.790700 0.125516 -1.918427 16.546750 11.710175 -6.009025 34.582775 -1.683647 -1.215845 -28.899291 -6.858470 -6.123426 -21.989848 9.241493 -7.298545 3.033639 2.791300 -3.455500 3.903500 2.508698 -1.773220 -2.038588 -68.751100 -57.406624 45.270608 142.621267 -42.881879 -104.029306 -0.517809 1.059619 5.700877 1.556095 -17.538398 -0.691400 -7.125000 0.000000 0.000000 -16.833400 12.002600 13.578600 -5.967594 2.546076 -1.990049 33.765055 44.324669 -2.845876 -146.027121 40.089219 -105.736092 0.873047 1.988910 11.222001 -8.451582 -48.197527 6.877600 7.125000 0.000000 0.000000 59.165200 -73.532200 -43.564700 
-0.639695 18.497474 5.067594 -0.147496 -2.444259 11.107238 3.158129 3.790145 3.671094 -16.736737 -2.897807 -24.510385 1.507667 7.758655 25.250797 -0.736095 5.124774 -7.014711 8.530700 -16.496100 -54.452700 -1.989990 -4.335878 4.047827 13.894069 11.612554 -7.206255 0.411229 0.714552 1.403141 1.252959 -11.295922 -13.948289 -0.332200 3.704300 -10.246300 0.083429 -1.904584 16.706548 12.424352 -6.203753 34.541212 -1.677605 -1.243994 -28.897714 -6.886989 -6.171305 -21.950117 8.941179 -7.357998 3.437259 2.742000 -3.479800 3.990100 2.318310 -1.754662 -2.068613 -68.210509 -59.269660 44.338901 140.500366 -44.143270 -102.492580 -0.516052 1.032813 6.345872 1.555431 -17.152224 -0.678100 -7.125000 0.000000 0.000000 -16.852600 12.403900 13.448100 -5.853657 2.591857 -1.981111 30.530353 44.577597 -5.479877 -144.320302 41.285715 -104.415822 0.916105 1.858319 12.049520 -8.914346 -48.340541 7.268300 7.125000 0.000000 0.000000 58.882500 -73.726800 -43.529500 
-0.647338 18.496005 5.040651 -0.030088 -2.213719 11.105576 3.165564 3.790779 3.672699 -16.824810 -2.939698 -24.648148 1.510338 7.756085 25.231308 -0.709464 4.958569 -6.751585 8.497500 -16.473200 -54.335400 -1.986934 -4.334178 4.044420 13.842460 11.393029 -7.330439 0.411879 0.713987 1.403187 1.256670 -11.323957 -13.975096 -0.310500 3.582400 -9.904500 0.492632 -1.952118 16.959084 12.492373 -6.185111 34.566336 -1.853140 -1.291612 -29.126714 -7.379977 -6.265621 -21.864210 9.400609 -7.476901 3.889791 2.901800 -3.519700 4.096500 2.215988 -1.795937 -2.110132 -67.561385 -61.157207 43.729888 138.128194 -45.452459 -100.718097 -0.512676 0.998039 7.499027 1.841770 -16.432876 -0.739400 -7.125000 0.000000 0.000000 -16.706100 13.124200 13.056100 -5.628000 2.542206 -1.966244 27.445347 44.585907 -8.019076 -142.400704 42.558239 -102.883746 1.007543 1.746985 12.950081 -10.450443 -48.703690 8.559100 7.125000 0.000000 0.000000 58.596800 -74.446000 -44.040000 
-0.653412 18.496005 5.011257 0.109662 -2.031918 11.104485 3.148229 3.803978 3.692384 -16.928517 -2.955702 -24.818971 1.510867 7.757313 25.207349 -0.686862 4.812495 -6.468752 8.482700 -16.463000 -54.283100 -2.009195 -4.326560 4.038481 13.781459 11.201466 -7.463687 0.413604 0.718967 1.405603 1.270387 -11.399944 -14.001307 -0.271500 3.351900 -9.260000 1.052877 -2.014317 17.181854 12.293613 -6.092406 34.752702 -2.017288 -1.336572 -29.294854 -7.866700 -6.425298 -22.288304 9.856548 -7.696945 4.635048 3.041900 -3.588900 4.341400 2.139924 -1.874923 -2.162869 -66.773659 -63.190837 43.003146 135.535369 -46.718852 -98.743142 -0.508326 0.955768 8.441457 1.940184 -15.356787 -0.721500 -7.125000 0.000000 0.000000 -16.708800 14.200000 12.659900 -5.351652 2.472325 -1.950269 24.145114 44.648362 -10.714988 -140.251338 43.872986 -101.115287 1.115663 1.643956 13.991012 -12.459964 -49.249561 10.274400 7.125000 0.000000 0.000000 58.736800 -75.439400 -45.189600 
-0.657233 18.496592 4.981276 0.224564 -1.849997 11.165761 3.174542 3.779887 3.663360 -17.066384 -2.999804 -24.975511 1.510052 7.743590 25.170366 -0.677417 4.728796 -6.229756 8.479100 -16.460600 -54.270500 -1.987434 -4.322468 4.081986 13.684319 11.557416 -8.844039 0.314378 -0.181538 3.764602 1.045761 -10.487992 -14.611872 -0.233000 3.106800 -8.576100 1.213838 -2.015300 17.262964 12.651998 -6.183469 34.918448 -2.005663 -1.354985 -29.167967 -8.169467 -6.520943 -22.752215 9.902041 -7.792640 5.115636 3.085300 -3.611900 4.536600 2.000055 -1.940486 -2.240310 -65.953561 -65.143554 41.841709 132.521487 -47.995327 -96.399185 -0.512187 0.914181 9.054883 2.135804 -14.699819 -0.745200 -7.125000 0.000000 0.000000 -16.623600 14.868200 12.340800 -5.137649 2.499835 -1.940142 20.478544 44.870884 -13.492018 -137.723785 45.247227 -98.996315 1.160811 1.454471 14.982417 -12.901728 -48.957917 10.601500 7.125000 0.000000 0.000000 56.740500 -75.426600 -43.447200 
-0.660565 18.499336 4.951197 0.311148 -1.735354 11.259848 3.220250 3.743565 3.613808 -17.197885 -3.016795 -25.116689 1.504068 7.714641 25.098139 -0.675631 4.677168 -5.983660 8.441600 -16.434600 -54.138000 -1.952313 -4.326315 4.113766 13.553066 11.862550 -9.885602 0.229149 -0.809173 5.381227 0.919525 -9.987552 -14.950379 -0.213500 2.974900 -8.208900 1.230555 -1.974925 17.390486 13.270651 -6.316397 34.951643 -1.960968 -1.347689 -28.988302 -8.409523 -6.559264 -23.309421 9.817896 -7.802985 5.705946 3.094500 -3.591600 4.759300 1.824540 -1.995148 -2.312095 -65.380703 -67.010741 40.730444 128.721252 -49.412388 -93.324033 -0.523242 0.872867 9.504086 2.897435 -14.959841 -0.964900 -7.125000 0.000000 0.000000 -16.105600 14.633000 12.006800 -4.952634 2.584204 -1.889456 17.022390 45.019661 -15.977937 -134.429308 46.815430 -96.175058 1.207048 1.176732 16.350799 -12.664501 -47.831548 10.271500 7.125000 0.000000 0.000000 52.240200 -74.693600 -38.912500 
